<?xml version="1.0" standalone="no"?>
<!DOCTYPE svg PUBLIC "-//W3C//DTD SVG 20010904//EN"
 "http://www.w3.org/TR/2001/REC-SVG-20010904/DTD/svg10.dtd">
<svg version="1.0" xmlns="http://www.w3.org/2000/svg"
 width="4320.000000pt" height="4320.000000pt" viewBox="0 0 4320.000000 4320.000000"
 preserveAspectRatio="xMidYMid meet">
<metadata>
Created by potrace 1.16, written by Peter Selinger 2001-2019
</metadata>
<g transform="translate(0.000000,4320.000000) scale(0.100000,-0.100000)"
fill="#000000" stroke="none">
<path d="M0 21600 l0 -21600 21600 0 21600 0 0 21600 0 21600 -21600 0 -21600
0 0 -21600z m24472 16103 l97 -98 5097 -13273 5097 -13273 -94 -95 -94 -94
-2986 0 -2986 0 -3458 9985 c-1902 5492 -3461 9985 -3464 9985 -4 0 -5419
-15618 -6840 -19727 l-84 -243 -2986 0 -2986 0 -94 94 -94 95 5097 13273 5097
13273 97 98 97 97 2695 0 2695 0 97 -97z"/>
</g>
</svg>
