<svg version="1.1" id="Layer_1" xmlns="http://www.w3.org/2000/svg" xmlns:xlink="http://www.w3.org/1999/xlink" x="0px" y="0px"
	 width="100%" viewBox="0 0 4320 4320" enable-background="new 0 0 4320 4320" xml:space="preserve">
<path fill="#01203F" opacity="1.000000" stroke="none" 
	d="
M1992.000000,4324.000000 
	C1328.076416,4324.000000 666.152771,4324.000000 4.114587,4324.000000 
	C4.114587,2884.242676 4.114587,1444.485107 4.114587,4.363839 
	C1443.591187,4.363839 2883.182617,4.363839 4323.386719,4.363839 
	C4323.386719,1443.999756 4323.386719,2883.999756 4323.386719,4324.000000 
	C3547.150146,4324.000000 2770.574951,4324.000000 1992.000000,4324.000000 
M3009.089844,1980.774292 
	C3008.447998,1978.879395 3007.871826,1976.959351 3007.155029,1975.093384 
	C2847.406250,1559.198364 2687.649902,1143.306519 2527.887451,727.416748 
	C2508.543945,677.061890 2488.879150,626.827148 2470.023438,576.290466 
	C2465.563965,564.338501 2457.593750,555.914856 2448.409912,548.260681 
	C2441.663818,542.638428 2432.983398,546.009216 2425.184570,545.218140 
	C2424.524902,545.151245 2423.852295,545.209290 2423.185791,545.209290 
	C2258.537109,545.209290 2093.888672,545.209167 1929.240112,545.209595 
	C1925.240601,545.209656 1921.219849,545.480164 1917.246094,545.162048 
	C1909.991821,544.580994 1904.838745,547.837891 1899.522583,552.495056 
	C1890.117676,560.734253 1884.991211,571.106323 1880.620239,582.494019 
	C1638.162354,1214.165039 1395.584351,1845.789795 1153.011108,2477.416504 
	C1060.852295,2717.385498 968.669067,2957.344971 876.538147,3197.324463 
	C873.724731,3204.652588 871.371948,3212.157959 869.137878,3218.616699 
	C879.524475,3234.697266 892.439514,3239.296143 910.388977,3239.226318 
	C1093.699341,3238.513916 1277.013672,3238.790527 1460.326782,3238.790283 
	C1467.624634,3238.790283 1474.922485,3238.790527 1481.168579,3238.790527 
	C1488.277222,3232.775391 1488.976318,3225.015869 1491.342651,3218.247314 
	C1516.614014,3145.961182 1541.630493,3073.586182 1566.692871,3001.227051 
	C1743.223267,2491.556641 1919.740967,1981.881958 2096.281494,1472.215210 
	C2121.345703,1399.856201 2146.505615,1327.530396 2171.651123,1255.199585 
	C2172.838867,1251.782227 2172.756348,1247.133545 2178.280029,1247.325439 
	C2178.703369,1247.914185 2179.212891,1248.406494 2179.456543,1249.006592 
	C2179.956543,1250.238525 2180.296143,1251.534424 2180.732422,1252.793213 
	C2407.885986,1908.421753 2635.042725,2564.049316 2862.195801,3219.677979 
	C2862.850098,3221.566406 2863.452881,3223.472412 2864.082031,3225.369385 
	C2864.501709,3226.634033 2864.905518,3227.905029 2865.354980,3229.158936 
	C2865.579346,3229.784668 2865.889648,3230.379395 2866.165527,3230.986328 
	C2866.717285,3232.199951 2867.232178,3233.432617 2867.843018,3234.616211 
	C2868.143066,3235.197510 2868.601074,3235.704834 2869.028564,3236.210938 
	C2869.449463,3236.708984 2869.922607,3237.163086 2871.470215,3238.790771 
	C2877.659668,3238.790771 2884.949951,3238.790771 2892.240479,3238.790771 
	C3076.220215,3238.790771 3260.199951,3238.792725 3444.179688,3238.788086 
	C3466.235840,3238.787354 3466.250244,3238.783447 3481.724121,3222.019531 
	C3482.566650,3221.106689 3482.828369,3219.657715 3483.810547,3217.442627 
	C3482.075439,3212.643555 3480.153320,3207.025879 3478.026367,3201.486328 
	C3407.370850,3017.463135 3336.688965,2833.449707 3266.023682,2649.429932 
	C3180.795898,2427.486816 3095.579590,2205.539307 3009.089844,1980.774292 
M2118.689209,3695.354248 
	C2127.869385,3710.041504 2136.740479,3724.933594 2146.315674,3739.358887 
	C2156.111328,3754.116699 2163.952148,3770.328613 2177.139648,3783.928711 
	C2179.897949,3780.341553 2182.061523,3777.889893 2183.826904,3775.179199 
	C2242.027832,3685.805664 2297.239990,3594.688477 2344.030029,3498.712891 
	C2362.138672,3461.568848 2378.392822,3423.668945 2389.975098,3383.855713 
	C2400.718506,3346.927002 2399.836914,3310.269287 2389.486328,3273.520996 
	C2358.979004,3165.209717 2251.390137,3098.890625 2143.397949,3115.209961 
	C2007.382446,3135.763672 1924.675049,3275.491943 1965.911255,3393.989258 
	C1976.654541,3424.861816 1988.515259,3455.184570 2002.383911,3484.749756 
	C2036.100220,3556.625977 2075.849854,3625.178955 2118.689209,3695.354248 
z"/>
<path fill="#E1CB9C" opacity="1.000000" stroke="none" 
	d="
M3009.724121,1982.183838 
	C3095.579590,2205.539307 3180.795898,2427.486816 3266.023682,2649.429932 
	C3336.688965,2833.449707 3407.370850,3017.463135 3478.026367,3201.486328 
	C3480.153320,3207.025879 3482.075439,3212.643555 3483.810547,3217.442627 
	C3482.828369,3219.657715 3482.566650,3221.106689 3481.724121,3222.019531 
	C3466.250244,3238.783447 3466.235840,3238.787354 3444.179688,3238.788086 
	C3260.199951,3238.792725 3076.220215,3238.790771 2892.240479,3238.790771 
	C2884.949951,3238.790771 2877.659668,3238.790771 2871.470215,3238.790771 
	C2869.922607,3237.163086 2869.449463,3236.708984 2869.028564,3236.210938 
	C2868.601074,3235.704834 2868.143066,3235.197510 2867.843018,3234.616211 
	C2867.232178,3233.432617 2866.717285,3232.199951 2866.165527,3230.986328 
	C2865.889648,3230.379395 2865.579346,3229.784668 2865.354980,3229.158936 
	C2864.905518,3227.905029 2864.501709,3226.634033 2864.082031,3225.369385 
	C2863.452881,3223.472412 2862.850098,3221.566406 2862.195801,3219.677979 
	C2635.042725,2564.049316 2407.885986,1908.421753 2180.732422,1252.793213 
	C2180.296143,1251.534424 2179.956543,1250.238525 2179.456543,1249.006592 
	C2179.212891,1248.406494 2178.703369,1247.914185 2178.280029,1247.325439 
	C2172.756348,1247.133545 2172.838867,1251.782227 2171.651123,1255.199585 
	C2146.505615,1327.530396 2121.345703,1399.856201 2096.281494,1472.215210 
	C1919.740967,1981.881958 1743.223267,2491.556641 1566.692871,3001.227051 
	C1541.630493,3073.586182 1516.614014,3145.961182 1491.342651,3218.247314 
	C1488.976318,3225.015869 1488.277222,3232.775391 1481.168579,3238.790527 
	C1474.922485,3238.790527 1467.624634,3238.790283 1460.326782,3238.790283 
	C1277.013672,3238.790527 1093.699341,3238.513916 910.388977,3239.226318 
	C892.439514,3239.296143 879.524475,3234.697266 869.137878,3218.616699 
	C871.371948,3212.157959 873.724731,3204.652588 876.538147,3197.324463 
	C968.669067,2957.344971 1060.852295,2717.385498 1153.011108,2477.416504 
	C1395.584351,1845.789795 1638.162354,1214.165039 1880.620239,582.494019 
	C1884.991211,571.106323 1890.117676,560.734253 1899.522583,552.495056 
	C1904.838745,547.837891 1909.991821,544.580994 1917.246094,545.162048 
	C1921.219849,545.480164 1925.240601,545.209656 1929.240112,545.209595 
	C2093.888672,545.209167 2258.537109,545.209290 2423.185791,545.209290 
	C2423.852295,545.209290 2424.524902,545.151245 2425.184570,545.218140 
	C2432.983398,546.009216 2441.663818,542.638428 2448.409912,548.260681 
	C2457.593750,555.914856 2465.563965,564.338501 2470.023438,576.290466 
	C2488.879150,626.827148 2508.543945,677.061890 2527.887451,727.416748 
	C2687.649902,1143.306519 2847.406250,1559.198364 3007.155029,1975.093384 
	C3007.871826,1976.959351 3008.447998,1978.879395 3009.724121,1982.183838 
z"/>
<path fill="#FE4F00" opacity="1.000000" stroke="none" 
	d="
M2117.885498,3694.134521 
	C2075.849854,3625.178955 2036.100220,3556.625977 2002.383911,3484.749756 
	C1988.515259,3455.184570 1976.654541,3424.861816 1965.911255,3393.989258 
	C1924.675049,3275.491943 2007.382446,3135.763672 2143.397949,3115.209961 
	C2251.390137,3098.890625 2358.979004,3165.209717 2389.486328,3273.520996 
	C2399.836914,3310.269287 2400.718506,3346.927002 2389.975098,3383.855713 
	C2378.392822,3423.668945 2362.138672,3461.568848 2344.030029,3498.712891 
	C2297.239990,3594.688477 2242.027832,3685.805664 2183.826904,3775.179199 
	C2182.061523,3777.889893 2179.897949,3780.341553 2177.139648,3783.928711 
	C2163.952148,3770.328613 2156.111328,3754.116699 2146.315674,3739.358887 
	C2136.740479,3724.933594 2127.869385,3710.041504 2117.885498,3694.134521 
z"/>
</svg>